{
	"asset":{
		"generator":"Khronos glTF Blender I/O v4.2.69",
		"version":"2.0"
	},
	"extensionsUsed":[
		"KHR_materials_transmission",
		"KHR_materials_specular",
		"KHR_materials_sheen",
		"KHR_materials_ior"
	],
	"scene":0,
	"scenes":[
		{
			"extras":{
				"uuid":"48986873-c459-4ea2-8915-587ba2bc8963",
				"assets reported":{},
				"render_st_user":"",
				"render_st_pass":"",
				"render_st_job_name":"MUSSARELA_4kg",
				"render_st_upload_progress":0,
				"NPRSettings":{},
				"assets used":{
					"92b954b2-b8d8-4aef-a77c-6310733ba951":{
						"thumbnail":"thumbnail_8de9475b-d5ad-476e-9366-7a083b5585ad.png.512x512_q85_crop-%2C.png.webp",
						"thumbnail_small":"thumbnail_8de9475b-d5ad-476e-9366-7a083b5585ad.png.256x256_q85_crop-%2C.png.webp",
						"downloaded":0,
						"bbox_min":[
							-0.0306,
							-0.0199,
							-0.0005
						],
						"bbox_max":[
							0.0304,
							0.0577,
							0.0621
						],
						"pk":63838,
						"url":"https://www.blenderkit.com/api/v1/assets/3202874a-50c4-4809-9688-5b7997e8e99c/",
						"id":"3202874a-50c4-4809-9688-5b7997e8e99c",
						"assetBaseId":"92b954b2-b8d8-4aef-a77c-6310733ba951",
						"versionNumber":1,
						"author":{
							"id":"539958",
							"firstName":"Aung",
							"lastName":"Min Khant",
							"gravatarHash":"ceecf6e0edea0816d27e47b21d45273a",
							"avatar128":"/avatar-redirect/76c06f6d-06ab-4619-82a7-87f797557903/128/",
							"aboutMe":"Hello! I'm 3d Artist from Myanmar .I'm creating 3d short animation on Facebook and YouTube. If you like my 3d assets please support us. The page name  is called \" Memories - 1990 Nostalgia \".",
							"aboutMeUrl":null,
							"fullName":"Aung Min Khant",
							"socialNetworks":[
								{
									"socialNetwork":{
										"name":"YouTube",
										"icon":"<i class=\"fab fa-youtube\" title=\"YouTube\"></i><span class=\"sr-only\">YouTube</span>",
										"order":1
									},
									"url":"https://www.youtube.com/channel/UC0HruFwb2sx_fLHumcoLIYw"
								}
							]
						},
						"name":"Cheeese",
						"displayName":"Cheese",
						"description":"Cheese model is with UV map. The profile image is rendered by cycle engine if you want to render in eve you need to adjust SSS value.\r\nIf you like my 3d assets, please support us.",
						"assetType":"model",
						"category":"food",
						"adult":false,
						"isFree":true,
						"tags":[
							"Cheese",
							"motiongraphic",
							"food"
						],
						"license":"royalty_free",
						"sourceAppName":"blender",
						"sourceAppVersion":"3.6.0",
						"addonVersion":"3.8.1",
						"created":"2023-09-07T11:40:36.520171+02:00",
						"lastUserInteraction":"2023-09-07T11:40:47.338694+02:00",
						"verificationStatus":"validated",
						"isPrivate":false,
						"files":[
							{
								"fileType":"blend",
								"downloadUrl":"https://www.blenderkit.com/api/v1/downloads/230866/",
								"fileThumbnail":null,
								"fileThumbnailLarge":null,
								"created":"2023-09-07T11:40:46.101684+02:00",
								"modified":"2024-02-27T08:56:57.346814+01:00",
								"mimeType":null,
								"resolution":null,
								"url":"https://public.blenderkit.com/public-assets/assets/3202874a50c4480996885b7997e8e99c/files/blend_f235cf44-1da4-4425-b0df-632a47ee83fc.blend",
								"file_name":"blend_f235cf44-1da4-4425-b0df-632a47ee83fc.blend"
							},
							{
								"fileType":"thumbnail",
								"downloadUrl":"https://www.blenderkit.com/api/v1/downloads/230865/",
								"fileThumbnail":"https://public.blenderkit.com/thumbnails/assets/3202874a50c4480996885b7997e8e99c/files/thumbnail_8de9475b-d5ad-476e-9366-7a083b5585ad.png.96x96_q85_crop-%2C.png",
								"fileThumbnailLarge":"https://public.blenderkit.com/thumbnails/assets/3202874a50c4480996885b7997e8e99c/files/thumbnail_8de9475b-d5ad-476e-9366-7a083b5585ad.png.1024x1024_q85_crop-%2C.png",
								"created":"2023-09-07T11:40:43.073760+02:00",
								"modified":"2024-02-27T08:56:57.379835+01:00",
								"mimeType":null,
								"resolution":null
							}
						],
						"filesSize":857,
						"thumbnailSmallUrl":"https://public.blenderkit.com/thumbnails/assets/3202874a50c4480996885b7997e8e99c/files/thumbnail_8de9475b-d5ad-476e-9366-7a083b5585ad.png.256x256_q85_crop-%2C.png",
						"thumbnailMiddleUrl":"https://public.blenderkit.com/thumbnails/assets/3202874a50c4480996885b7997e8e99c/files/thumbnail_8de9475b-d5ad-476e-9366-7a083b5585ad.png.512x512_q85_crop-%2C.png",
						"thumbnailLargeUrl":"https://public.blenderkit.com/thumbnails/assets/3202874a50c4480996885b7997e8e99c/files/thumbnail_8de9475b-d5ad-476e-9366-7a083b5585ad.png.1024x1024_q85_crop-%2C.png",
						"thumbnailXlargeUrl":"https://public.blenderkit.com/thumbnails/assets/3202874a50c4480996885b7997e8e99c/files/thumbnail_8de9475b-d5ad-476e-9366-7a083b5585ad.png.2048x2048_q85_crop-%2C.png",
						"thumbnailSmallUrlNonsquared":"https://public.blenderkit.com/thumbnails/assets/3202874a50c4480996885b7997e8e99c/files/thumbnail_8de9475b-d5ad-476e-9366-7a083b5585ad.png.256x256_q85.png",
						"thumbnailMiddleUrlNonsquared":"https://public.blenderkit.com/thumbnails/assets/3202874a50c4480996885b7997e8e99c/files/thumbnail_8de9475b-d5ad-476e-9366-7a083b5585ad.png.512x512_q85.png",
						"thumbnailLargeUrlNonsquared":"https://public.blenderkit.com/thumbnails/assets/3202874a50c4480996885b7997e8e99c/files/thumbnail_8de9475b-d5ad-476e-9366-7a083b5585ad.png.1024x1024_q85.png",
						"thumbnailXlargeUrlNonsquared":"https://public.blenderkit.com/thumbnails/assets/3202874a50c4480996885b7997e8e99c/files/thumbnail_8de9475b-d5ad-476e-9366-7a083b5585ad.png.2048x2048_q85.png",
						"thumbnailSmallUrlWebp":"https://public.blenderkit.com/thumbnails/assets/3202874a50c4480996885b7997e8e99c/files/thumbnail_8de9475b-d5ad-476e-9366-7a083b5585ad.png.256x256_q85_crop-%2C.png.webp?webp_generated=1709020620",
						"thumbnailMiddleUrlWebp":"https://public.blenderkit.com/thumbnails/assets/3202874a50c4480996885b7997e8e99c/files/thumbnail_8de9475b-d5ad-476e-9366-7a083b5585ad.png.512x512_q85_crop-%2C.png.webp?webp_generated=1709020620",
						"thumbnailLargeUrlWebp":"https://public.blenderkit.com/thumbnails/assets/3202874a50c4480996885b7997e8e99c/files/thumbnail_8de9475b-d5ad-476e-9366-7a083b5585ad.png.1024x1024_q85_crop-%2C.png.webp?webp_generated=1709020620",
						"thumbnailXlargeUrlWebp":"https://public.blenderkit.com/thumbnails/assets/3202874a50c4480996885b7997e8e99c/files/thumbnail_8de9475b-d5ad-476e-9366-7a083b5585ad.png.2048x2048_q85_crop-%2C.png.webp?webp_generated=1709020620",
						"thumbnailSmallUrlNonsquaredWebp":"https://public.blenderkit.com/thumbnails/assets/3202874a50c4480996885b7997e8e99c/files/thumbnail_8de9475b-d5ad-476e-9366-7a083b5585ad.png.256x256_q85.png.webp?webp_generated=1709020620",
						"thumbnailMiddleUrlNonsquaredWebp":"https://public.blenderkit.com/thumbnails/assets/3202874a50c4480996885b7997e8e99c/files/thumbnail_8de9475b-d5ad-476e-9366-7a083b5585ad.png.512x512_q85.png.webp?webp_generated=1709020620",
						"thumbnailLargeUrlNonsquaredWebp":"https://public.blenderkit.com/thumbnails/assets/3202874a50c4480996885b7997e8e99c/files/thumbnail_8de9475b-d5ad-476e-9366-7a083b5585ad.png.1024x1024_q85.png.webp?webp_generated=1709020620",
						"thumbnailXlargeUrlNonsquaredWebp":"https://public.blenderkit.com/thumbnails/assets/3202874a50c4480996885b7997e8e99c/files/thumbnail_8de9475b-d5ad-476e-9366-7a083b5585ad.png.2048x2048_q85.png.webp?webp_generated=1709020620",
						"showMarketingLabels":true,
						"webpGeneratedTimestamp":1709020620,
						"score":190.0,
						"ratingsMedian":{
							"bookmarks":1.0,
							"workingHours":3.0,
							"quality":8.0,
							"virtualPrice":null
						},
						"ratingsAverage":{
							"bookmarks":1.0,
							"workingHours":3.0,
							"quality":6.333333333333333,
							"virtualPrice":null
						},
						"ratingsCount":{
							"bookmarks":33,
							"workingHours":1,
							"quality":3,
							"virtualPrice":0
						},
						"ratingsSum":{
							"bookmarks":33.0,
							"workingHours":3.0,
							"quality":19.0,
							"virtualPrice":null,
							"score":190.0
						},
						"lastBlendUpload":"2023-09-07T09:40:46.101684+00:00",
						"lastGltfUpload":null,
						"lastZipFileUpload":null,
						"lastThumbnailUpload":"2023-09-07T09:40:43.073760+00:00",
						"lastVideoUpload":null,
						"lastResolutionUpload":null,
						"dictParameters":{
							"faceCount":11866,
							"productionLevel":"finished",
							"procedural":true,
							"modelStyle":"3d_graphics",
							"condition":"new",
							"designer":"Aung Min Khant",
							"manufacturer":"Pivot Animation Studio",
							"designCollection":"Food",
							"purePbr":true,
							"shaders":[
								"principled"
							],
							"pbrType":"metallic",
							"uv":true,
							"engines":[
								"cycles"
							],
							"modifiers":[
								"subsurf"
							],
							"materials":[
								"Material.002"
							],
							"rig":false,
							"simulation":false,
							"dimensionX":0.061,
							"dimensionY":0.0777,
							"dimensionZ":0.0625,
							"boundBoxMinX":-0.0306,
							"boundBoxMinY":-0.0199,
							"boundBoxMinZ":-0.0005,
							"boundBoxMaxX":0.0304,
							"boundBoxMaxY":0.0577,
							"boundBoxMaxZ":0.0621,
							"faceCountRender":189856,
							"meshPolyType":"quad",
							"manifold":true,
							"objectCount":2,
							"nodeCount":8,
							"textureCount":0,
							"megapixels":0,
							"textAIcheckedDate":"2023-09-10"
						},
						"canDownload":true,
						"canDownloadError":true,
						"available_resolutions":[],
						"max_resolution":0,
						"tooltip_data":{
							"aname":"Cheese",
							"author_text":"by Aung Min Khant",
							"quality":"6"
						},
						"resolution":"blend"
					}
				}
			},
			"name":"posicao 02",
			"nodes":[
				0
			]
		}
	],
	"nodes":[
		{
			"mesh":0,
			"name":"plastico novo.002",
			"rotation":[
				0.3483249545097351,
				-0.6153615117073059,
				0.6153614521026611,
				0.3483249247074127
			],
			"scale":[
				2.846222400665283,
				1.0368173122406006,
				1.3243681192398071
			],
			"translation":[
				0,
				1.2998671531677246,
				0.23883476853370667
			]
		}
	],
	"animations":[
		{
			"channels":[
				{
					"sampler":0,
					"target":{
						"node":0,
						"path":"translation"
					}
				},
				{
					"sampler":1,
					"target":{
						"node":0,
						"path":"rotation"
					}
				}
			],
			"name":"plastico novo.002Action",
			"samplers":[
				{
					"input":4,
					"interpolation":"LINEAR",
					"output":5
				},
				{
					"input":4,
					"interpolation":"LINEAR",
					"output":6
				}
			]
		}
	],
	"materials":[
		{
			"alphaMode":"BLEND",
			"doubleSided":true,
			"extensions":{
				"KHR_materials_transmission":{
					"transmissionFactor":1
				},
				"KHR_materials_specular":{
					"specularFactor":0.6181818246841431
				},
				"KHR_materials_sheen":{
					"sheenColorFactor":[
						1.0,
						1.0,
						1.0
					],
					"sheenRoughnessFactor":0.5
				},
				"KHR_materials_ior":{
					"ior":1.7499994039535522
				}
			},
			"name":"plastic glass.002",
			"pbrMetallicRoughness":{
				"baseColorFactor":[
					1,
					1,
					1,
					0.5
				],
				"metallicFactor":0.1409090906381607,
				"roughnessFactor":0.0681818425655365
			}
		}
	],
	"meshes":[
		{
			"name":"Cube.014",
			"primitives":[
				{
					"attributes":{
						"POSITION":0,
						"NORMAL":1,
						"TEXCOORD_0":2
					},
					"indices":3,
					"material":0
				}
			]
		}
	],
	"accessors":[
		{
			"bufferView":0,
			"componentType":5126,
			"count":200,
			"max":[
				0.9770291447639465,
				0.9762612581253052,
				0.9762612581253052
			],
			"min":[
				-0.9770291447639465,
				-0.9762612581253052,
				-0.9762612581253052
			],
			"type":"VEC3"
		},
		{
			"bufferView":1,
			"componentType":5126,
			"count":200,
			"type":"VEC3"
		},
		{
			"bufferView":2,
			"componentType":5126,
			"count":200,
			"type":"VEC2"
		},
		{
			"bufferView":3,
			"componentType":5123,
			"count":564,
			"type":"SCALAR"
		},
		{
			"bufferView":4,
			"componentType":5126,
			"count":3,
			"max":[
				0.125
			],
			"min":[
				0.041666666666666664
			],
			"type":"SCALAR"
		},
		{
			"bufferView":5,
			"componentType":5126,
			"count":3,
			"type":"VEC3"
		},
		{
			"bufferView":6,
			"componentType":5126,
			"count":3,
			"type":"VEC4"
		}
	],
	"bufferViews":[
		{
			"buffer":0,
			"byteLength":2400,
			"byteOffset":0,
			"target":34962
		},
		{
			"buffer":0,
			"byteLength":2400,
			"byteOffset":2400,
			"target":34962
		},
		{
			"buffer":0,
			"byteLength":1600,
			"byteOffset":4800,
			"target":34962
		},
		{
			"buffer":0,
			"byteLength":1128,
			"byteOffset":6400,
			"target":34963
		},
		{
			"buffer":0,
			"byteLength":12,
			"byteOffset":7528
		},
		{
			"buffer":0,
			"byteLength":36,
			"byteOffset":7540
		},
		{
			"buffer":0,
			"byteLength":48,
			"byteOffset":7576
		}
	],
	"buffers":[
		{
			"byteLength":7624,
			"uri":"Mussarela_2kg.bin"
		}
	]
}
